<svg width="93" height="38" viewBox="0 0 93 38" fill="none" xmlns="http://www.w3.org/2000/svg">
<g filter="url(#filter0_d_4_2)">
<path d="M15.6531 7.91025C15.8959 6.18515 17.2403 2.78999 20.6759 3.01022C20.7409 4.69862 19.8273 8.04239 15.6531 7.91025Z" fill="url(#paint0_linear_4_2)"/>
<path d="M15.1702 10.1125C15.0834 10.0389 14.9915 9.96567 14.8949 9.8936C14.824 9.84069 14.7505 9.7884 14.6747 9.73703C12.6238 8.34796 8.83181 7.63228 6.40072 13.4937C7.83169 11.4309 12.6641 12.9663 15.1702 14.138C17.7259 12.9214 22.7884 11.3121 24.1131 13.76C22.9397 10.7513 20.0475 6.72187 15.8237 9.61701C15.6093 9.76398 15.3915 9.92881 15.1702 10.1125Z" fill="url(#paint1_linear_4_2)"/>
<path d="M6.03082 14.4684C5.50227 17.9039 11.9035 15.6796 15.1702 14.138C12.6641 12.9663 7.83169 11.4309 6.40072 13.4937C6.27355 13.8003 6.1501 14.1249 6.03082 14.4684Z" fill="url(#paint2_linear_4_2)"/>
<path fill-rule="evenodd" clip-rule="evenodd" d="M6.03082 14.4684C6.09068 14.0793 6.21796 13.7571 6.40072 13.4937C6.27355 13.8003 6.1501 14.1249 6.03082 14.4684ZM24.3647 14.4684C24.2923 14.2418 24.2083 14.0042 24.1131 13.76C24.2247 13.9664 24.3099 14.2016 24.3647 14.4684Z" fill="url(#paint3_linear_4_2)"/>
<path d="M15.1702 14.138C18.5287 15.6775 25.0694 17.8988 24.3647 14.4684C24.2923 14.2418 24.2083 14.0042 24.1131 13.76C22.7884 11.3121 17.7259 12.9214 15.1702 14.138Z" fill="url(#paint4_linear_4_2)"/>
<path d="M15.1702 10.1125C15.3915 9.92881 15.6093 9.76398 15.8237 9.61701C15.8468 9.33537 15.8221 8.73023 15.6531 7.91025C15.5288 6.93759 14.994 4.92618 13.8489 4.66191C13.5185 4.60686 13.1992 4.9372 13.6837 5.59788C14.2893 6.42372 14.7848 7.14208 14.8949 9.8936C14.9915 9.96567 15.0834 10.0389 15.1702 10.1125Z" fill="url(#paint5_linear_4_2)"/>
<path d="M15.3904 20.8673C12.6927 19.656 7.22005 17.8502 6.91173 20.3167C6.84542 20.8472 6.95027 21.2637 7.18701 21.5805C8.32613 23.1053 12.5187 22.3259 15.3904 20.8673Z" fill="url(#paint6_linear_4_2)"/>
<path d="M23.8141 20.0778C23.0653 18.0517 17.8863 19.7599 15.3904 20.8673C19.316 22.7607 22.6713 22.7846 23.6545 21.5805C23.9676 21.1972 24.0401 20.6894 23.8141 20.0778Z" fill="url(#paint7_linear_4_2)"/>
<path d="M15.3904 20.8673C12.5187 22.3259 8.32613 23.1053 7.18701 21.5805C8.43496 23.4838 11.8228 26.6295 15.3904 23.9868C17.1376 25.007 21.2365 25.954 23.6545 21.5805C22.6713 22.7846 19.316 22.7607 15.3904 20.8673Z" fill="url(#paint8_linear_4_2)"/>
</g>
<g filter="url(#filter1_d_4_2)">
<path d="M27.04 23L31.8 10.34C32.0133 9.79333 32.3067 9.39333 32.68 9.14C33.0533 8.88667 33.4867 8.76 33.98 8.76C34.4733 8.76 34.9067 8.88667 35.28 9.14C35.6667 9.38 35.96 9.77333 36.16 10.32L40.94 23H38.84L37.62 19.62H30.3L29.06 23H27.04ZM30.9 17.92H37.04L34.54 10.98C34.4733 10.8067 34.4 10.6733 34.32 10.58C34.24 10.4867 34.1267 10.44 33.98 10.44C33.8467 10.44 33.74 10.4867 33.66 10.58C33.58 10.6733 33.5133 10.8067 33.46 10.98L30.9 17.92ZM47.6044 12.56C48.3777 12.56 49.0844 12.6867 49.7244 12.94C50.3644 13.18 50.9177 13.54 51.3844 14.02C51.851 14.5 52.211 15.08 52.4644 15.76C52.731 16.4267 52.8644 17.18 52.8644 18.02C52.8644 19.0733 52.6444 19.9933 52.2044 20.78C51.7777 21.5667 51.191 22.1733 50.4444 22.6C49.6977 23.0267 48.851 23.24 47.9044 23.24C47.3844 23.24 46.8844 23.1533 46.4044 22.98C45.9377 22.8067 45.5177 22.5667 45.1444 22.26C44.7844 21.94 44.491 21.58 44.2644 21.18H44.2244V27.4H42.3844V17.96C42.3844 16.8133 42.611 15.84 43.0644 15.04C43.531 14.24 44.1577 13.6267 44.9444 13.2C45.731 12.7733 46.6177 12.56 47.6044 12.56ZM47.6044 14.14C46.991 14.14 46.4244 14.2933 45.9044 14.6C45.3977 14.9067 44.991 15.34 44.6844 15.9C44.391 16.46 44.2444 17.12 44.2444 17.88C44.2444 18.6533 44.391 19.3267 44.6844 19.9C44.991 20.46 45.3977 20.8933 45.9044 21.2C46.4244 21.5067 46.9977 21.66 47.6244 21.66C48.2644 21.66 48.8377 21.5 49.3444 21.18C49.851 20.86 50.251 20.42 50.5444 19.86C50.851 19.3 51.0044 18.6467 51.0044 17.9C51.0044 17.1267 50.851 16.46 50.5444 15.9C50.2377 15.34 49.8244 14.9067 49.3044 14.6C48.7977 14.2933 48.231 14.14 47.6044 14.14ZM60.3778 12.56C61.1511 12.56 61.8578 12.6867 62.4978 12.94C63.1378 13.18 63.6911 13.54 64.1578 14.02C64.6245 14.5 64.9845 15.08 65.2378 15.76C65.5045 16.4267 65.6378 17.18 65.6378 18.02C65.6378 19.0733 65.4178 19.9933 64.9778 20.78C64.5511 21.5667 63.9645 22.1733 63.2178 22.6C62.4711 23.0267 61.6245 23.24 60.6778 23.24C60.1578 23.24 59.6578 23.1533 59.1778 22.98C58.7111 22.8067 58.2911 22.5667 57.9178 22.26C57.5578 21.94 57.2645 21.58 57.0378 21.18H56.9978V27.4H55.1578V17.96C55.1578 16.8133 55.3845 15.84 55.8378 15.04C56.3045 14.24 56.9311 13.6267 57.7178 13.2C58.5045 12.7733 59.3911 12.56 60.3778 12.56ZM60.3778 14.14C59.7645 14.14 59.1978 14.2933 58.6778 14.6C58.1711 14.9067 57.7645 15.34 57.4578 15.9C57.1645 16.46 57.0178 17.12 57.0178 17.88C57.0178 18.6533 57.1645 19.3267 57.4578 19.9C57.7645 20.46 58.1711 20.8933 58.6778 21.2C59.1978 21.5067 59.7711 21.66 60.3978 21.66C61.0378 21.66 61.6111 21.5 62.1178 21.18C62.6245 20.86 63.0245 20.42 63.3178 19.86C63.6245 19.3 63.7778 18.6467 63.7778 17.9C63.7778 17.1267 63.6245 16.46 63.3178 15.9C63.0111 15.34 62.5978 14.9067 62.0778 14.6C61.5711 14.2933 61.0045 14.14 60.3778 14.14ZM67.9913 23V8.4H69.8313V23H67.9913ZM77.9369 23C76.8169 23 75.8235 22.7933 74.9569 22.38C74.0902 21.9533 73.4102 21.36 72.9169 20.6C72.4369 19.8267 72.1969 18.9267 72.1969 17.9C72.1969 16.8867 72.4035 15.98 72.8169 15.18C73.2302 14.3667 73.8035 13.7267 74.5369 13.26C75.2702 12.7933 76.1235 12.56 77.0969 12.56C78.1502 12.56 79.0235 12.7867 79.7169 13.24C80.4235 13.6933 80.9502 14.3067 81.2969 15.08C81.6435 15.84 81.8169 16.6933 81.8169 17.64C81.8169 17.7867 81.8102 17.94 81.7969 18.1C81.7969 18.26 81.7835 18.4 81.7569 18.52H74.1569C74.2235 19.1467 74.4302 19.68 74.7769 20.12C75.1235 20.5467 75.5635 20.8733 76.0969 21.1C76.6435 21.3133 77.2435 21.42 77.8969 21.42H80.5569V23H77.9369ZM74.1369 17.22H79.9569C79.9569 16.9667 79.9302 16.7 79.8769 16.42C79.8235 16.1267 79.7302 15.8467 79.5969 15.58C79.4635 15.3 79.2835 15.0533 79.0569 14.84C78.8435 14.6133 78.5702 14.4333 78.2369 14.3C77.9169 14.1667 77.5369 14.1 77.0969 14.1C76.6302 14.1 76.2169 14.1933 75.8569 14.38C75.5102 14.5533 75.2102 14.7933 74.9569 15.1C74.7035 15.3933 74.5102 15.7267 74.3769 16.1C74.2435 16.4733 74.1635 16.8467 74.1369 17.22ZM84.7831 23.2C84.4231 23.2 84.1098 23.0733 83.8431 22.82C83.5898 22.5533 83.4631 22.24 83.4631 21.88C83.4631 21.52 83.5898 21.2133 83.8431 20.96C84.1098 20.6933 84.4231 20.56 84.7831 20.56C85.1431 20.56 85.4498 20.6933 85.7031 20.96C85.9698 21.2133 86.1031 21.52 86.1031 21.88C86.1031 22.12 86.0431 22.34 85.9231 22.54C85.8165 22.74 85.6631 22.9 85.4631 23.02C85.2631 23.14 85.0365 23.2 84.7831 23.2Z" fill="url(#paint9_linear_4_2)"/>
<path d="M27.04 23L31.8 10.34C32.0133 9.79333 32.3067 9.39333 32.68 9.14C33.0533 8.88667 33.4867 8.76 33.98 8.76C34.4733 8.76 34.9067 8.88667 35.28 9.14C35.6667 9.38 35.96 9.77333 36.16 10.32L40.94 23H38.84L37.62 19.62H30.3L29.06 23H27.04ZM30.9 17.92H37.04L34.54 10.98C34.4733 10.8067 34.4 10.6733 34.32 10.58C34.24 10.4867 34.1267 10.44 33.98 10.44C33.8467 10.44 33.74 10.4867 33.66 10.58C33.58 10.6733 33.5133 10.8067 33.46 10.98L30.9 17.92ZM47.6044 12.56C48.3777 12.56 49.0844 12.6867 49.7244 12.94C50.3644 13.18 50.9177 13.54 51.3844 14.02C51.851 14.5 52.211 15.08 52.4644 15.76C52.731 16.4267 52.8644 17.18 52.8644 18.02C52.8644 19.0733 52.6444 19.9933 52.2044 20.78C51.7777 21.5667 51.191 22.1733 50.4444 22.6C49.6977 23.0267 48.851 23.24 47.9044 23.24C47.3844 23.24 46.8844 23.1533 46.4044 22.98C45.9377 22.8067 45.5177 22.5667 45.1444 22.26C44.7844 21.94 44.491 21.58 44.2644 21.18H44.2244V27.4H42.3844V17.96C42.3844 16.8133 42.611 15.84 43.0644 15.04C43.531 14.24 44.1577 13.6267 44.9444 13.2C45.731 12.7733 46.6177 12.56 47.6044 12.56ZM47.6044 14.14C46.991 14.14 46.4244 14.2933 45.9044 14.6C45.3977 14.9067 44.991 15.34 44.6844 15.9C44.391 16.46 44.2444 17.12 44.2444 17.88C44.2444 18.6533 44.391 19.3267 44.6844 19.9C44.991 20.46 45.3977 20.8933 45.9044 21.2C46.4244 21.5067 46.9977 21.66 47.6244 21.66C48.2644 21.66 48.8377 21.5 49.3444 21.18C49.851 20.86 50.251 20.42 50.5444 19.86C50.851 19.3 51.0044 18.6467 51.0044 17.9C51.0044 17.1267 50.851 16.46 50.5444 15.9C50.2377 15.34 49.8244 14.9067 49.3044 14.6C48.7977 14.2933 48.231 14.14 47.6044 14.14ZM60.3778 12.56C61.1511 12.56 61.8578 12.6867 62.4978 12.94C63.1378 13.18 63.6911 13.54 64.1578 14.02C64.6245 14.5 64.9845 15.08 65.2378 15.76C65.5045 16.4267 65.6378 17.18 65.6378 18.02C65.6378 19.0733 65.4178 19.9933 64.9778 20.78C64.5511 21.5667 63.9645 22.1733 63.2178 22.6C62.4711 23.0267 61.6245 23.24 60.6778 23.24C60.1578 23.24 59.6578 23.1533 59.1778 22.98C58.7111 22.8067 58.2911 22.5667 57.9178 22.26C57.5578 21.94 57.2645 21.58 57.0378 21.18H56.9978V27.4H55.1578V17.96C55.1578 16.8133 55.3845 15.84 55.8378 15.04C56.3045 14.24 56.9311 13.6267 57.7178 13.2C58.5045 12.7733 59.3911 12.56 60.3778 12.56ZM60.3778 14.14C59.7645 14.14 59.1978 14.2933 58.6778 14.6C58.1711 14.9067 57.7645 15.34 57.4578 15.9C57.1645 16.46 57.0178 17.12 57.0178 17.88C57.0178 18.6533 57.1645 19.3267 57.4578 19.9C57.7645 20.46 58.1711 20.8933 58.6778 21.2C59.1978 21.5067 59.7711 21.66 60.3978 21.66C61.0378 21.66 61.6111 21.5 62.1178 21.18C62.6245 20.86 63.0245 20.42 63.3178 19.86C63.6245 19.3 63.7778 18.6467 63.7778 17.9C63.7778 17.1267 63.6245 16.46 63.3178 15.9C63.0111 15.34 62.5978 14.9067 62.0778 14.6C61.5711 14.2933 61.0045 14.14 60.3778 14.14ZM67.9913 23V8.4H69.8313V23H67.9913ZM77.9369 23C76.8169 23 75.8235 22.7933 74.9569 22.38C74.0902 21.9533 73.4102 21.36 72.9169 20.6C72.4369 19.8267 72.1969 18.9267 72.1969 17.9C72.1969 16.8867 72.4035 15.98 72.8169 15.18C73.2302 14.3667 73.8035 13.7267 74.5369 13.26C75.2702 12.7933 76.1235 12.56 77.0969 12.56C78.1502 12.56 79.0235 12.7867 79.7169 13.24C80.4235 13.6933 80.9502 14.3067 81.2969 15.08C81.6435 15.84 81.8169 16.6933 81.8169 17.64C81.8169 17.7867 81.8102 17.94 81.7969 18.1C81.7969 18.26 81.7835 18.4 81.7569 18.52H74.1569C74.2235 19.1467 74.4302 19.68 74.7769 20.12C75.1235 20.5467 75.5635 20.8733 76.0969 21.1C76.6435 21.3133 77.2435 21.42 77.8969 21.42H80.5569V23H77.9369ZM74.1369 17.22H79.9569C79.9569 16.9667 79.9302 16.7 79.8769 16.42C79.8235 16.1267 79.7302 15.8467 79.5969 15.58C79.4635 15.3 79.2835 15.0533 79.0569 14.84C78.8435 14.6133 78.5702 14.4333 78.2369 14.3C77.9169 14.1667 77.5369 14.1 77.0969 14.1C76.6302 14.1 76.2169 14.1933 75.8569 14.38C75.5102 14.5533 75.2102 14.7933 74.9569 15.1C74.7035 15.3933 74.5102 15.7267 74.3769 16.1C74.2435 16.4733 74.1635 16.8467 74.1369 17.22ZM84.7831 23.2C84.4231 23.2 84.1098 23.0733 83.8431 22.82C83.5898 22.5533 83.4631 22.24 83.4631 21.88C83.4631 21.52 83.5898 21.2133 83.8431 20.96C84.1098 20.6933 84.4231 20.56 84.7831 20.56C85.1431 20.56 85.4498 20.6933 85.7031 20.96C85.9698 21.2133 86.1031 21.52 86.1031 21.88C86.1031 22.12 86.0431 22.34 85.9231 22.54C85.8165 22.74 85.6631 22.9 85.4631 23.02C85.2631 23.14 85.0365 23.2 84.7831 23.2Z" fill="url(#paint10_linear_4_2)"/>
</g>
<defs>
<filter id="filter0_d_4_2" x="0" y="1" width="30.4173" height="34" filterUnits="userSpaceOnUse" color-interpolation-filters="sRGB">
<feFlood flood-opacity="0" result="BackgroundImageFix"/>
<feColorMatrix in="SourceAlpha" type="matrix" values="0 0 0 0 0 0 0 0 0 0 0 0 0 0 0 0 0 0 127 0" result="hardAlpha"/>
<feOffset dy="4"/>
<feGaussianBlur stdDeviation="3"/>
<feComposite in2="hardAlpha" operator="out"/>
<feColorMatrix type="matrix" values="0 0 0 0 0 0 0 0 0 0 0 0 0 0 0 0 0 0 0.25 0"/>
<feBlend mode="normal" in2="BackgroundImageFix" result="effect1_dropShadow_4_2"/>
<feBlend mode="normal" in="SourceGraphic" in2="effect1_dropShadow_4_2" result="shape"/>
</filter>
<filter id="filter1_d_4_2" x="21.04" y="6.39999" width="71.0631" height="31" filterUnits="userSpaceOnUse" color-interpolation-filters="sRGB">
<feFlood flood-opacity="0" result="BackgroundImageFix"/>
<feColorMatrix in="SourceAlpha" type="matrix" values="0 0 0 0 0 0 0 0 0 0 0 0 0 0 0 0 0 0 127 0" result="hardAlpha"/>
<feOffset dy="4"/>
<feGaussianBlur stdDeviation="3"/>
<feComposite in2="hardAlpha" operator="out"/>
<feColorMatrix type="matrix" values="0 0 0 0 0 0 0 0 0 0 0 0 0 0 0 0 0 0 0.25 0"/>
<feBlend mode="normal" in2="BackgroundImageFix" result="effect1_dropShadow_4_2"/>
<feBlend mode="normal" in="SourceGraphic" in2="effect1_dropShadow_4_2" result="shape"/>
</filter>
<linearGradient id="paint0_linear_4_2" x1="16.2163" y1="7.57991" x2="20.3455" y2="3.45067" gradientUnits="userSpaceOnUse">
<stop stop-color="#29751D"/>
<stop offset="1" stop-color="#9ECA03"/>
</linearGradient>
<linearGradient id="paint1_linear_4_2" x1="8.12297" y1="11.599" x2="21.8321" y2="11.3238" gradientUnits="userSpaceOnUse">
<stop stop-color="#F4C74B"/>
<stop offset="0.530142" stop-color="#DC744C"/>
<stop offset="1" stop-color="#C91F51"/>
</linearGradient>
<linearGradient id="paint2_linear_4_2" x1="10.5851" y1="12.4799" x2="10.5851" y2="16.2816" gradientUnits="userSpaceOnUse">
<stop stop-color="#E07250"/>
<stop offset="1" stop-color="#E8B748"/>
</linearGradient>
<linearGradient id="paint3_linear_4_2" x1="10.5851" y1="12.4799" x2="10.5851" y2="16.2816" gradientUnits="userSpaceOnUse">
<stop stop-color="#E05F49"/>
<stop offset="1" stop-color="#E8B748"/>
</linearGradient>
<linearGradient id="paint4_linear_4_2" x1="23.5939" y1="13.8564" x2="15.7208" y2="14.1316" gradientUnits="userSpaceOnUse">
<stop stop-color="#C53A61"/>
<stop offset="1" stop-color="#EE6F66"/>
</linearGradient>
<linearGradient id="paint5_linear_4_2" x1="13.7938" y1="4.9372" x2="15.2253" y2="9.78218" gradientUnits="userSpaceOnUse">
<stop stop-color="#9ECA03"/>
<stop offset="1" stop-color="#29751D"/>
</linearGradient>
<linearGradient id="paint6_linear_4_2" x1="7.24207" y1="20.7384" x2="14.2893" y2="21.0137" gradientUnits="userSpaceOnUse">
<stop stop-color="#CB295C"/>
<stop offset="1" stop-color="#DF764F"/>
</linearGradient>
<linearGradient id="paint7_linear_4_2" x1="22.2175" y1="19.4171" x2="16.8219" y2="21.3441" gradientUnits="userSpaceOnUse">
<stop stop-color="#F3BA55"/>
<stop offset="1" stop-color="#DD5351"/>
</linearGradient>
<linearGradient id="paint8_linear_4_2" x1="8.83871" y1="23.0508" x2="22.3826" y2="23.0508" gradientUnits="userSpaceOnUse">
<stop stop-color="#BC1E52"/>
<stop offset="0.484375" stop-color="#E16A4A"/>
<stop offset="1" stop-color="#EEB252"/>
</linearGradient>
<linearGradient id="paint9_linear_4_2" x1="57" y1="6" x2="57" y2="27.5" gradientUnits="userSpaceOnUse">
<stop stop-color="#FE365D"/>
<stop offset="1" stop-color="#FF7E0B"/>
</linearGradient>
<linearGradient id="paint10_linear_4_2" x1="28.9672" y1="14.5" x2="85.5258" y2="15.9513" gradientUnits="userSpaceOnUse">
<stop stop-color="#CD325B"/>
<stop offset="0.218272" stop-color="#E5924C"/>
<stop offset="0.55634" stop-color="#CA2251"/>
<stop offset="0.766592" stop-color="#E99F4C"/>
<stop offset="1" stop-color="#CA2251"/>
</linearGradient>
</defs>
</svg>
